# xmcd
#
# Track frame offsets:
#   150
#   18331
#   38163
#   58514
#   83396
#   98467
#   112213
#   130125
#   148306
#   168023
#   189103
#   200161
#   222950
#   240958
#
# Disc length: 3399 seconds
#
# Revision: 0
# Processed by: cddbd v1.4PL0 Copyright (c) Steve Scherf et al.
# Submitted via: uFREEDB 1.6.0
#
DISCID=b30d450e
DTITLE=Ernst Daniel Smid - Gevoel van geluk
DYEAR=2003
DGENRE=Pop
TTITLE0=Het dorp
TTITLE1=Het kleine cafe aan de haven
TTITLE2=Pastorale
TTITLE3=Laat me alleen
TTITLE4=Eenzaam zonder jou
TTITLE5=Ik ben zo blij dat ik je niet vergeten ben
TTITLE6=Vluchten Kan niet meer
TTITLE7=Een vriend zien huilen
TTITLE8=Zing vecht huil bid
TTITLE9=Liefde van later
TTITLE10=Ik zou wel eens willen weten
TTITLE11=Foto van vroeger
TTITLE12=Margrietje
TTITLE13=Testament
EXTD=
EXTT0=
EXTT1=
EXTT2=
EXTT3=
EXTT4=
EXTT5=
EXTT6=
EXTT7=
EXTT8=
EXTT9=
EXTT10=
EXTT11=
EXTT12=
EXTT13=
PLAYORDER=
